#!OML:ASF E:/inclinewalkrobotboard/Project1/Captureday1/Session1/subject1.ASF
:FULLY-SPECIFIED
:DEGREES
51
root 0 0 0 9.209914312376403 21.762487984478657 -10.256739848115403
lowerback 10.843539442405016 2.9688339328762314 1.241964458791601
upperback 1.86922222064449 3.8361405365930223 -1.6570826317163472
thorax -4.086178519286076 1.974047600906091 -2.743705010268732
lowerneck -8.313446479562927 -4.847733598311477 -7.086095114662004
upperneck 2.700212657338117 -5.658246446139228 5.164838886076955
head 3.1806425241714837 -2.6438637458322383 2.5445033720562193
rclavicle -1.1177606848299195E-14 1.4972934087913555E-16
rhumerus 6.521080673118984 -11.703278925573466 -66.17316610653798
rradius 18.628853252513707
rwrist 56.977896749831515
rhand -7.23627021496322 21.41058674771649
rfingers 7.125019999999921
rthumb 18.64557057990455 -8.283875526309096
lclavicle -1.0139784232244908E-14 4.4633376987574534E-15
lhumerus -27.737432302885843 4.481997882030072 78.63521339785396
lradius 30.089313509959766
lwrist -38.16962621145912
lhand -8.333361019168693 15.050632158653737
lfingers 7.059348956998978
lthumb 17.336056735038426 46.08290025332356
rfemur 0.9834529415060587 7.857474985689977 36.31925144035336
rtibia 25.734818833863375
rfoot -18.337671650059978 -5.693325892539668
rtoes 11.27030892028363
lfemur -26.190887542547685 3.1583060616773695 -11.983003995595478
ltibia 68.9336297807394
lfoot 3.630033300728707 -10.31857192179164
ltoes -6.784571975771063
52
root 0 0 0 9.513667594197214 20.237649512057747 -9.558863575966576
lowerback 10.326659111940018 2.6911731038458653 1.7393433057977457
upperback 1.7651089379636882 3.5520561055564883 -1.3827886894172736
thorax -3.903346612861459 1.8300206556124812 -2.717377554583893
lowerneck -8.297630672674806 -4.712950748727309 -7.105454353060284
upperneck 3.7279223168612576 -5.518998995089644 5.402803290999515
head 3.4424710001798644 -2.576733114082992 2.6475664022135605
rclavicle -1.1288541624133285E-14 2.0541175675037676E-16
rhumerus 5.630898663096838 -10.417808297058064 -66.07471358737195
rradius 19.820182719409104
rwrist 55.4773604192072
rhand -7.288503804892256 20.795177468221862
rfingers 7.1250199999999255
rthumb 18.592622674383062 -8.882298704787097
lclavicle -9.668243351046732E-15 4.53358508782656E-15
lhumerus -26.775264165311793 5.244168621914113 77.89656960433773
lradius 29.988946765076612
lwrist -38.618632641236886
lhand -8.356091384685971 14.985488804580278
lfingers 7.060088342595736
lthumb 17.317225494379322 47.541073487863315
rfemur 0.8496733882286271 7.987223817603333 36.354681015703065
rtibia 25.545707958333377
rfoot -19.33921572012819 -5.949374435921164
rtoes 11.350020628978053
lfemur -27.381738231760906 2.9534103372821336 -12.19627839945808
ltibia 66.43401647640484
lfoot 2.084289276570315 -8.47913600837076
ltoes -4.517963156317174
53
root 0 0 0 8.512442249228215 17.281304573415195 -9.29482813696204
lowerback 10.12615602273775 2.762926946839679 1.9431154210659893
upperback 1.8374079366321017 3.668968585037152 -1.3199086624538328
thorax -3.7288251961440464 1.8858726393688934 -2.7731248863433335
lowerneck -7.954740191882234 -4.601092477545012 -6.948922549736105
upperneck 3.9940749117998715 -5.443547192638556 5.42297633593727
head 3.4479106312549916 -2.534821437143023 2.6253288646379387
rclavicle -1.0623477063585834E-14 2.0348807381917606E-16
rhumerus 4.357843662657229 -9.464344050049975 -66.89363479772946
rradius 20.07102106320982
rwrist 55.40726163797804
rhand -7.230298561893791 20.73375391900475
rfingers 7.125019999999927
rthumb 18.649896008084408 -8.93805891044304
lclavicle -6.923975197332023E-15 4.757958751843651E-15
lhumerus -26.995077041845335 4.792970886102502 78.31456442197104
lradius 30.580398155887806
lwrist -38.703356836655104
lhand -8.58962972708898 14.775846993169298
lfingers 7.05341689088835
lthumb 17.063378974467014 48.40187819958327
rfemur 1.332945471232609 8.179459034463626 36.490944789619185
rtibia 24.924460721857855
rfoot -19.581724571278922 -5.966834330079262
rtoes 11.317292241490387
lfemur -31.176836868501944 3.3838380739491027 -11.080567162104142
ltibia 67.55986643797289
lfoot -0.16283247107892684 -6.082727135624353
ltoes -3.6078170007155403
54
root 0 0 0 9.507866897189697 21.657175642719462 -10.374350643697753
lowerback 10.627275499012255 2.8832216233977954 1.3291436601478117
upperback 1.7806924978576992 3.7421272243242507 -1.5932299382635806
thorax -4.0556564666748205 1.927530283528528 -2.7208001599270624
lowerneck -8.372369181011583 -4.873794700432395 -7.203315272361602
upperneck 2.8837654976343003 -5.695050642031806 5.308781057653291
head 3.243883686270765 -2.6644747473695785 2.6119706140439525
rclavicle -1.103621655216362E-14 1.652152223548211E-16
rhumerus 7.164157124233634 -11.81948598826318 -65.65610550791874
rradius 19.142026721309897
rwrist 56.374373768229276
rhand -7.369496358147892 21.208445170927174
rfingers 7.125019999999924
rthumb 18.516153277096908 -8.488409578322624
lclavicle -9.179854090991885E-15 4.733664693202814E-15
lhumerus -26.02650450215527 5.962561088067808 77.32685196014957
lradius 31.63739855525865
lwrist -37.975393469270244
lhand -8.62366524182147 14.709010155533207
lfingers 7.056434373813864
lthumb 17.044038870326567 49.50704625231507
rfemur 1.9094217040266876 8.21370298206174 36.65985163697009
rtibia 24.643040483800412
rfoot -20.438824725965368 -6.1495755029516825
rtoes 10.505236915047426
lfemur -34.358784213159254 2.8998131419047084 -11.031370999542276
ltibia 62.039903827690964
lfoot -2.774093161732802 -3.17187592952075
ltoes -1.5086472446245294
55
root 0 0 0 9.78896444296227 22.713515184530007 -10.710476192349864
lowerback 10.66946662251026 2.8888382137838424 1.140129321186051
upperback 1.7164555171854843 3.728867899741829 -1.6600871236265093
thorax -4.142081491222898 1.9220730966016986 -2.684298260492752
lowerneck -8.572931227293573 -4.959568122820594 -7.321266895384051
upperneck 2.616926285359021 -5.776668014327714 5.3405453738832325
head 3.214114851021467 -2.707019718807669 2.6354862714086
rclavicle -1.1112567275632006E-14 2.799067946112832E-16
rhumerus 8.579475984197941 -12.568441996589874 -64.71132199579495
rradius 19.25761297988965
rwrist 56.24811085228413
rhand -7.566669512752423 21.199479851773376
rfingers 7.1250199999999255
rthumb 18.325240152131705 -8.511116590777213
lclavicle -8.846040634047295E-15 5.068700587986267E-15
lhumerus -24.6663904711386 7.0284231356897955 76.22542764409593
lradius 32.55818677128651
lwrist -37.63897331589607
lhand -8.767732023224092 14.541766856935094
lfingers 7.0544515219539745
lthumb 16.895373089417028 51.3560759744631
rfemur 2.8800702432199436 8.328018607725712 36.79684893404897
rtibia 24.271494472384912
rfoot -21.2128098579284 -6.2067215105527564
rtoes 9.359853770650865
lfemur -38.76075890322567 1.7885055391220506 -10.773327688103507
ltibia 51.378500880311634
lfoot -6.763535759467386 1.6502632139687403
ltoes 1.351128331170301
56
root 0 0 0 10.123781140044562 23.358551047954958 -10.874210045539236
lowerback 10.63388283988461 2.8627576397254604 1.0515304330896806
upperback 1.6532123504056282 3.687972339944779 -1.6853406019678414
thorax -4.185192220384883 1.9022092426904176 -2.6590531805281707
lowerneck -8.726352841552885 -5.0091916450010014 -7.413107993301506
upperneck 2.5563098698455757 -5.821251813398936 5.394950965231537
head 3.2283087102776786 -2.7307024873926276 2.6670736807728357
rclavicle -1.1059640939064819E-14 3.9502195275673483E-16
rhumerus 9.791248824060006 -13.176822507150666 -63.7887845895441
rradius 19.64431740002265
rwrist 55.90090535715942
rhand -7.813253410846331 21.132982651920244
rfingers 7.125019999999929
rthumb 18.086129059147293 -8.59069394120683
lclavicle -7.684099752130008E-15 5.375391738371247E-15
lhumerus -22.812214597417487 8.274137242597277 74.8286134782219
lradius 33.564646933861916
lwrist -37.328657823552206
lhand -9.076139121319546 14.388244319213559
lfingers 7.052574832521916
lthumb 16.58792461783438 54.062685771575346
rfemur 4.631573762983113 8.520308832944721 36.92882525438558
rtibia 23.827662206952706
rfoot -21.93242394298079 -6.141162495559602
rtoes 7.552214424399994
lfemur -42.60327170486922 -0.45290986886663687 -10.299093023358477
ltibia 34.64854967864003
lfoot -10.79137858542474 7.7511471599972745
ltoes 4.876823861223807
57
root 0 0 0 10.706690935744497 24.556781515783864 -11.072821770855164
lowerback 10.521471199559565 2.7974857780469335 0.9391891883178287
upperback 1.5438455286170725 3.597480231607335 -1.710235094227373
thorax -4.23292812329536 1.8580520412998087 -2.616239373616121
lowerneck -8.963452739618306 -5.074076055843467 -7.541756104184135
upperneck 2.642449723624283 -5.882146732498148 5.4533491083946695
head 3.3035719505780934 -2.7626778874810567 2.706346898241432
rclavicle -1.1161009821167731E-14 6.498922209198757E-16
rhumerus 11.20968077311579 -14.081059359836248 -62.547042411726274
rradius 20.542686265018098
rwrist 55.249554335597736
rhand -8.16451445070357 21.139205032707622
rfingers 7.125019999999933
rthumb 17.74462179949765 -8.600964480727061
lclavicle -5.941886911063879E-15 5.930835759155491E-15
lhumerus -19.520181465211053 10.143399263041648 72.45401664720666
lradius 35.25874772292646
lwrist -36.60496976214036
lhand -9.773923394554659 14.29223128759206
lfingers 7.052943554369211
lthumb 15.91481571520735 59.71325809915799
rfemur 9.59159437329441 8.996505773039326 37.09786156571714
rtibia 23.009300159971076
rfoot -22.544985716557917 -5.583755697209891
rtoes 2.869788674085382
lfemur -39.84762912229612 -3.6215148410168796 -10.800273218336224
ltibia 17.654440187537848
lfoot -11.279005079833787 11.453521360548837
ltoes 8.960719884177204
58
root 0 0 0 10.762637732560528 25.07688828892758 -11.224338257575742
lowerback 10.407786311892846 2.7726103741977655 0.8365545051207466
upperback 1.473083590881861 3.5599555758569705 -1.7300999490652589
thorax -4.243067273032706 1.8399967120373666 -2.575345674833548
lowerneck -9.097351974908022 -5.120947501247698 -7.612243350305314
upperneck 2.7349991599137162 -5.945300022613711 5.480734695815006
head 3.364903976396512 -2.793124610041279 2.7197861052830072
rclavicle -1.1401074488507838E-14 6.993768626148548E-16
rhumerus 11.410142700807357 -14.41339892673375 -62.240752562481006
rradius 20.914981878124493
rwrist 55.02885890537918
rhand -8.239489177898355 21.220721285771805
rfingers 7.1250199999999335
rthumb 17.671231531419966 -8.523304128811791
lclavicle -5.718779684451113E-15 6.050280476841913E-15
lhumerus -18.07247164863672 10.79229658977481 71.43540823922572
lradius 35.98029570802739
lwrist -36.20573978319021
lhand -10.100648284110306 14.306087191232098
lfingers 7.054869181644058
lthumb 15.608264355411425 62.92044675563655
rfemur 12.603861258375986 9.135754635408622 37.15624620089097
rtibia 22.73419047035331
rfoot -21.72498037998731 -4.86155684971917
rtoes -0.08806543814899737
lfemur -37.29473603443843 -4.197068149777983 -11.503804629657061
ltibia 15.32265985204915
lfoot -10.839670253213946 11.485748419964835
ltoes 10.199393555802171
